<?xml version="1.0" encoding="UTF-8"?>
<svg width="100pt" height="100pt" version="1.1" viewBox="0 0 100 100" xmlns="http://www.w3.org/2000/svg">
 <g fill="#9b9b9b">
  <path d="m70 24.051v-0.050781h-38c-6.0742 0-11 4.9258-11 11v34c0 3.8672 3.1328 7 7 7h30c3.8672 0 7-3.1328 7-7v-15h14v-20c0-5.1367-3.8906-9.4375-9-9.9492zm-11 44.949c0 0.26562-0.10547 0.51953-0.29297 0.70703s-0.44141 0.29297-0.70703 0.29297h-30c-0.55078 0-1-0.44922-1-1v-34c0-2.7617 2.2383-5 5-5h27.84c-0.55469 1.2617-0.83984 2.6211-0.83984 4zm14-21h-8v-14c0-2.2109 1.7891-4 4-4s4 1.7891 4 4z"/>
  <path d="m35 40h16v6h-16z"/>
  <path d="m35 54h16v6h-16z"/>
 </g>
</svg>
